<?xml version="1.0" encoding="utf-8" ?><svg xmlns="http://www.w3.org/2000/svg" xmlns:xlink="http://www.w3.org/1999/xlink" width="394" height="402" viewBox="0 0 394 402"><path fill="#F3BB50" d="M128.407 46.627L199.259 46.5077C213.103 46.504 233.388 45.8862 246.422 47.8554C258.478 49.5622 270.136 53.3946 280.854 59.1742C297.015 68.0024 310.186 81.4353 318.696 97.7661C322.991 106.183 325.314 113.176 327.93 122.158C308.616 123.624 291.212 127.009 272.964 133.697C269.097 135.114 265.423 136.261 261.622 137.961C261.2 134.974 260.778 131.932 259.875 129.049C251.542 102.462 219.35 106.466 197.495 106.487L149.049 106.499C149.525 109.831 149.141 118.677 149.055 122.307L149.063 172.562C149.061 181.507 149.288 191.645 148.992 200.509C147.266 203.167 139.055 209.691 136.098 212.216C133.603 214.376 131.169 216.604 128.798 218.899C112.081 234.699 98.2017 253.253 87.7658 273.751C85.2614 278.675 83.8851 282.302 81.6923 287.087C81.6477 284.535 81.9671 281.186 81.938 278.305C81.6891 250.353 81.6234 222.399 81.7409 194.446L81.6795 46.8325C87.9011 46.5319 94.8822 46.6327 101.158 46.6381L128.407 46.627Z"/><path fill="#F3BB50" d="M328.569 127.964L329.036 128.139C329.174 128.546 329.338 129.045 329.408 129.47C334.039 157.705 331.74 190.675 315.81 215.168C307.337 228.194 287.938 243.342 272.643 246.314C273.921 247.791 276.897 252.633 278.092 254.456C281.354 259.393 284.673 264.292 288.05 269.152L332.904 334.469C339.079 343.461 346.381 355.354 352.902 363.527C338.56 363.682 324.218 363.74 309.875 363.701L287.78 363.762C283.332 363.777 277.803 363.943 273.486 363.445C271.077 360.955 268.007 355.88 265.935 352.913C259.827 344.166 254.474 335.469 249.143 326.243C232.748 298.006 221.07 264.394 230.115 231.738C236.232 209.652 250.28 192.818 266.134 176.973C281.836 161.279 297.955 147.026 317.015 135.437C320.902 133.073 324.603 130.223 328.569 127.964Z"/><path fill="#F3BB50" d="M81.8253 363.478C81.2929 355.871 82.0184 348.03 82.3884 340.439C83.6819 313.902 91.9657 289.136 105.569 266.278C116.713 247.967 130.228 231.21 145.764 216.442C186.565 177.929 255.537 139.994 310.06 126.116C310.467 126.554 310.464 126.512 310.604 127.088C309.709 127.311 306.434 128.718 305.445 129.136C295.995 133.134 286.564 137.931 277.629 142.915C249.348 158.692 221.84 175.048 198.724 198.059C190.662 206.085 184.295 212.477 177.357 221.727C152.093 255.411 142.307 294.7 142.148 336.245C142.12 343.374 141.972 356.564 142.982 363.491C128.587 363.673 114.396 364.007 99.9785 363.659C93.9377 363.513 87.9204 363.812 81.8253 363.478Z"/><path fill="#F3BB50" d="M190.845 331.763C193.37 331.91 198.743 331.268 200.61 332.211C201.768 333.896 211.321 362.586 211.311 363.675C206.814 363.736 202.316 363.667 197.822 363.465C195.361 354.594 191.393 340.646 190.845 331.763Z"/><path fill="#F3BB50" d="M187.732 285.242C190.054 285.139 192.671 285.187 195.003 285.201C195.08 291.109 195.454 296.543 196.011 302.397C196.279 305.215 198.148 313.633 197.942 315.641C195.675 315.922 190.954 315.928 188.287 316.102C187.485 306.604 187.672 294.839 187.732 285.242Z"/><path fill="#F3BB50" d="M194.573 243.963C195.998 244.196 197.936 244.436 199.243 244.936C199.662 245.743 197.42 255.642 197.185 257.194C196.492 261.762 196.262 266.44 195.433 270.977C194.791 271.409 194.964 271.271 194.062 271.305C192.56 271.305 190.36 271.448 189.018 270.871C187.933 269.052 192.837 245.844 194.573 243.963Z"/><path fill="#F3BB50" d="M210.715 211.133C211.281 211.285 211.843 211.449 212.402 211.625C213.119 211.857 213.636 212.056 213.984 212.731C212.856 215.734 210.851 219.104 209.477 222.147C207.836 225.78 206.441 229.673 204.737 233.219C204.073 233.697 204.35 233.562 203.439 233.599C202.219 233.144 200.903 232.538 199.699 232.013C201.41 227.276 207.535 214.895 210.715 211.133Z"/><path fill="#F3BB50" d="M234.9 183.926C235.738 183.992 236.08 184.221 236.496 184.885C236.471 185.106 236.439 185.379 236.402 185.705C234.681 187.706 232.599 189.938 230.926 191.916C227.949 195.437 225.453 199.24 222.402 202.677C221.953 203.182 221.651 203.12 221.152 203.082C220.228 202.643 219.962 202.529 219.177 201.888C219.006 201.473 218.797 201.229 218.956 200.907C220.769 197.257 231.991 185.689 234.9 183.926Z"/><path fill="#F3BB50" d="M259.836 162.709C260.029 162.794 260.222 162.881 260.414 162.97C261.444 163.45 261.825 163.608 262.166 164.564C258.687 167.486 251.327 173.325 248.466 176.398L248.264 176.618C246.991 175.857 246.399 175.425 245.235 174.499C248.656 171.426 256.141 164.654 259.836 162.709Z"/><path fill="#F3BB50" d="M285.926 146.476C286.838 146.69 286.475 146.468 287.09 147.097C286.876 149.181 276.163 156.214 274.334 156.585C273.389 155.948 272.438 155.39 272.738 154.185C274.885 152.097 283.006 147.468 285.926 146.476Z"/><path fill="#F3BB50" d="M310.851 132.75L311.083 133.165C310.305 134.315 301.948 139.466 300.016 140.123C299.746 140.215 298.994 140.024 298.661 139.934C299.696 138.134 308.657 133.454 310.851 132.75Z"/><path fill="#E7A33C" d="M310.06 126.116C311.239 125.792 312.94 125.224 314.099 125.282C313.797 126.174 311.481 126.787 310.604 127.088C310.464 126.512 310.467 126.554 310.06 126.116Z"/></svg>